#!OML:ASF F:\VICON\USERDATA\INSTALL\rory3\rory3.ASF
:FULLY-SPECIFIED
:DEGREES
2543
root -3.13734 17.4203 -1.8257 2.07521 10.6577 -2.30713
lowerback 9.3856 -5.28672 -7.58246
upperback 0.673552 -7.63696 5.0555
thorax -2.83144 -3.72777 10.4602
lowerneck -28.6766 2.62666 -11.2873
upperneck 23.1123 7.76079 2.80026
head 11.766 2.81748 4.24685
rclavicle 2.40032e-014 1.39149e-014
rhumerus -15.9422 19.9175 -77.8303
rradius 136.983
rwrist 4.90493
rhand 3.00117 22.3925
rfingers 7.12502
rthumb 28.4617 -5.46253
lclavicle 2.40032e-014 1.39149e-014
lhumerus 60.6583 -9.12109 46.882
lradius 28.335
lwrist -29.1812
lhand 2.55274 10.6821
lfingers 7.12502
lthumb 28.0331 38.608
rfemur -10.3966 0.603334 2.34348
rtibia 39.5008
rfoot -11.999 -19.9888
rtoes -7.56126
lfemur -9.43272 -9.97945 4.85952
ltibia 34.099
lfoot 1.22322 -11.1722
ltoes -33.8198
2544
root -3.06683 17.4561 -1.79951 2.4621 11.182 -2.28791
lowerback 9.54513 -5.6634 -7.41231
upperback 0.514726 -8.12644 5.23702
thorax -2.97162 -3.96183 10.6257
lowerneck -29.227 3.1914 -11.4586
upperneck 22.7045 8.94149 1.87445
head 11.6654 3.21307 4.11316
rclavicle 6.79844e-014 -3.97569e-015
rhumerus -16.5647 19.662 -78.1389
rradius 140.106
rwrist 5.70296
rhand 2.47522 21.9548
rfingers 7.12502
rthumb 27.959 -5.98323
lclavicle 6.79844e-014 -3.97569e-015
lhumerus 59.3667 -8.74123 46.9116
lradius 29.7635
lwrist -31.9449
lhand 2.4389 9.93467
lfingers 7.12502
lthumb 27.9243 37.8783
rfemur -10.0437 0.94461 2.24718
rtibia 38.514
rfoot -11.865 -20.934
rtoes -7.45049
lfemur -10.4501 -8.87769 4.97321
ltibia 34.5318
lfoot 2.96703 -12.4274
ltoes -32.1553
2545
root -2.99199 17.4968 -1.77458 2.81484 11.3042 -2.21521
lowerback 9.63671 -5.73295 -6.96209
upperback 0.317258 -8.17579 5.18123
thorax -3.29249 -3.96329 10.3424
lowerneck -29.2123 3.65942 -11.4264
upperneck 22.1846 9.82107 0.886877
head 11.4692 3.49974 3.85721
rclavicle 3.47873e-014 -1.94809e-014
rhumerus -17.0903 19.2643 -78.2646
rradius 143.182
rwrist 6.38743
rhand 1.99376 21.6889
rfingers 7.12502
rthumb 27.4986 -6.32319
lclavicle 3.47873e-014 -1.94809e-014
lhumerus 57.733 -9.75931 46.046
lradius 33.1089
lwrist -27.0971
lhand -0.81882 10.8005
lfingers 7.12502
lthumb 24.8059 39.2116
rfemur -9.66811 1.38533 2.04552
rtibia 37.3123
rfoot -11.5793 -21.8115
rtoes -7.98022
lfemur -11.4065 -7.32728 4.97715
ltibia 35.2351
lfoot 5.05753 -13.8701
ltoes -30.3201
2546
root -2.91253 17.5373 -1.75034 3.10347 11.195 -2.28883
lowerback 9.59767 -5.54364 -6.40595
upperback 0.13243 -7.85844 5.14854
thorax -3.61728 -3.78464 9.98147
lowerneck -28.7071 3.94257 -11.4309
upperneck 21.6298 10.3513 -0.0129293
head 11.201 3.6549 3.57018
rclavicle 2.9122e-014 0
rhumerus -17.1823 18.9458 -77.7625
rradius 146.057
rwrist 6.7771
rhand 1.35618 21.4789
rfingers 7.12502
rthumb 26.8887 -6.62869
lclavicle 2.9122e-014 0
lhumerus 55.8912 -11.0829 46.8873
lradius 37.4908
lwrist -18.4407
lhand -3.40915 10.4645
lfingers 7.12502
lthumb 22.3212 39.1951
rfemur -9.22259 1.77755 1.94549
rtibia 35.8812
rfoot -11.1619 -22.5953
rtoes -8.00487
lfemur -12.41 -5.40027 5.14712
ltibia 36.1955
lfoot 7.70174 -15.5051
ltoes -27.6833
2547
root -2.82927 17.5809 -1.72923 3.41365 11.2377 -2.42822
lowerback 9.45 -5.23012 -5.88542
upperback -0.00280644 -7.37343 5.13835
thorax -3.84837 -3.53133 9.63113
lowerneck -28.157 3.9907 -11.5477
upperneck 21.225 10.4695 -0.440352
head 10.972 3.67817 3.41556
rclavicle 7.93151e-014 -5.56597e-015
rhumerus -16.5383 18.477 -76.5711
rradius 148.296
rwrist 7.35102
rhand 0.0874438 22.1942
rfingers 7.12502
rthumb 25.6741 -6.09454
lclavicle 7.93151e-014 -5.56597e-015
lhumerus 54.1482 -12.2764 49.9728
lradius 41.7622
lwrist -9.69885
lhand -4.70823 10.043
lfingers 7.12502
lthumb 21.0737 38.9179
rfemur -8.65953 1.82442 1.87147
rtibia 34.2352
rfoot -10.7633 -23.2767
rtoes -6.86199
lfemur -13.7246 -3.48738 5.40475
ltibia 37.3841
lfoot 10.4996 -17.299
ltoes -25.044
2548
root -2.74223 17.6236 -1.71128 3.63815 11.7063 -2.64794
lowerback 9.41008 -4.91876 -5.30263
upperback -0.141074 -6.89158 5.0483
thorax -4.15005 -3.27907 9.16924
lowerneck -27.7111 3.81675 -11.653
upperneck 21.2247 10.1253 -0.140124
head 10.8869 3.56695 3.47187
rclavicle 3.48867e-014 -2.3059e-014
rhumerus -15.1929 17.4548 -74.8236
rradius 149.616
rwrist 8.41654
rhand -1.59239 23.7121
rfingers 7.12502
rthumb 24.0643 -4.79902
lclavicle 3.48867e-014 -2.3059e-014
lhumerus 52.1966 -13.349 54.3592
lradius 45.7956
lwrist -4.48831
lhand -4.58509 9.92355
lfingers 7.12502
lthumb 21.192 38.7852
rfemur -7.74089 1.45177 1.89124
rtibia 32.4123
rfoot -10.3961 -23.9015
rtoes -5.75363
lfemur -15.3644 -2.02811 5.74306
ltibia 38.7315
lfoot 12.8634 -19.3617
ltoes -22.5899
2549
root -2.65552 17.6564 -1.6945 3.72551 12.5833 -2.84415
lowerback 9.43617 -4.62693 -4.81154
upperback -0.244482 -6.45258 4.85873
thorax -4.43396 -3.05179 8.65661
lowerneck -27.3199 3.52847 -11.4793
upperneck 21.5693 9.47455 0.428792
head 10.9551 3.35126 3.55451
rclavicle 7.74266e-014 -3.33958e-014
rhumerus -12.8787 15.6374 -72.5155
rradius 150.263
rwrist 7.76103
rhand -0.727701 24.2435
rfingers 7.12502
rthumb 24.8932 -4.1556
lclavicle 7.74266e-014 -3.33958e-014
lhumerus 49.7407 -14.8692 58.4623
lradius 49.7735
lwrist -6.18099
lhand -6.82804 8.36567
lfingers 7.12502
lthumb 19.0362 37.4541
rfemur -6.44324 0.771754 1.91318
rtibia 30.5034
rfoot -10.1681 -24.4782
rtoes -4.32661
lfemur -17.1548 -1.17352 6.05987
ltibia 40.1169
lfoot 14.3073 -21.5452
ltoes -21.6943
2550
root -2.57333 17.6802 -1.68358 3.65635 13.6175 -3.03766
lowerback 9.97078 -4.37563 -4.45129
upperback -0.550235 -6.09455 4.66106
thorax -5.18086 -2.83658 8.28676
lowerneck -26.8153 3.26123 -11.162
upperneck 22.2025 8.76296 1.12414
head 11.1165 3.12173 3.66117
rclavicle 2.5345e-015 -3.97569e-015
rhumerus -10.2654 14.6044 -70.1754
rradius 150.449
rwrist 4.78874
rhand 1.90346 22.2009
rfingers 7.12502
rthumb 27.4123 -5.82498
lclavicle 2.5345e-015 -3.97569e-015
lhumerus 46.41 -16.3756 62.6588
lradius 54.1476
lwrist -10.3672
lhand -7.67392 6.68027
lfingers 7.12502
lthumb 18.2226 35.8467
rfemur -4.96988 0.0227941 1.94707
rtibia 28.6097
rfoot -10.0519 -25.1592
rtoes -3.04646
lfemur -18.8905 -0.829431 6.37486
ltibia 41.3802
lfoot 14.378 -23.2334
ltoes -23.6779
2551
root -2.49363 17.6947 -1.68212 3.61155 14.5517 -3.23744
lowerback 10.5583 -4.0937 -4.40915
upperback -0.845013 -5.72559 4.63411
thorax -5.89519 -2.61051 8.27853
lowerneck -26.3821 2.96447 -10.9033
upperneck 22.7452 8.08623 1.62423
head 11.2693 2.88214 3.71062
rclavicle 2.97183e-014 -2.90226e-014
rhumerus -7.29306 14.9507 -67.6276
rradius 150.068
rwrist 0.147845
rhand 3.81471 18.0605
rfingers 7.12502
rthumb 29.2388 -9.66196
lclavicle 2.97183e-014 -2.90226e-014
lhumerus 42.7596 -17.736 66.7731
lradius 58.4936
lwrist -14.3724
lhand -7.80089 7.3543
lfingers 7.12502
lthumb 18.1004 36.5321
rfemur -3.67681 -0.602054 1.95305
rtibia 26.8218
rfoot -10.1325 -25.862
rtoes -1.15612
lfemur -20.5946 -0.659535 6.64453
ltibia 42.3647
lfoot 13.1877 -23.7499
ltoes -26.8425
2552
root -2.41353 17.7048 -1.68766 3.61817 15.3448 -3.50731
lowerback 10.7492 -3.67213 -4.2773
upperback -0.844523 -5.15335 4.53949
thorax -6.11918 -2.32069 8.0477
lowerneck -26.1064 2.50716 -10.5837
upperneck 22.8786 7.18045 2.02704
head 11.3232 2.55384 3.66879
rclavicle 9.02482e-014 -2.70347e-014
rhumerus -3.81134 15.0285 -64.8563
rradius 148.793
rwrist -3.81316
rhand 4.05695 14.163
rfingers 7.12502
rthumb 29.4701 -13.519
lclavicle 9.02482e-014 -2.70347e-014
lhumerus 39.5847 -19.4339 70.2377
lradius 62.6819
lwrist -15.9808
lhand -7.71671 8.7687
lfingers 7.12502
lthumb 18.1814 37.939
rfemur -2.6223 -0.978131 2.00722
rtibia 25.2001
rfoot -10.3726 -26.5508
rtoes 1.41221
lfemur -22.2619 -0.672279 6.9258
ltibia 42.9318
lfoot 11.469 -22.5296
ltoes -25.0638
2553
root -2.33333 17.7076 -1.6979 3.62633 16.0495 -3.93199
lowerback 10.5856 -3.19421 -3.79238
upperback -0.542768 -4.46005 4.33847
thorax -5.87062 -2.01365 7.42488
lowerneck -26.1234 1.87341 -10.4823
upperneck 22.6769 6.0498 2.72714
head 11.3016 2.16063 3.73138
rclavicle -3.19546e-014 1.23246e-014
rhumerus 0.383958 13.802 -61.9606
rradius 146.175
rwrist -4.20964
rhand 3.4502 12.1157
rfingers 7.12502
rthumb 28.8907 -15.6668
lclavicle -3.19546e-014 1.23246e-014
lhumerus 36.9197 -21.479 72.8444
lradius 66.798
lwrist -15.2066
lhand -7.56976 8.35235
lfingers 7.12502
lthumb 18.3228 37.5094
rfemur -1.79383 -1.21492 2.23528
rtibia 23.7995
rfoot -10.5378 -27.1736
rtoes 3.20853
lfemur -23.8489 -0.940389 7.37446
ltibia 42.975
lfoot 9.4649 -20.351
ltoes -27.3329
2554
root -2.25051 17.7009 -1.71614 3.64283 16.7064 -4.20169
lowerback 10.6747 -2.75937 -3.45339
upperback -0.274104 -3.84566 4.20358
thorax -5.75886 -1.73117 6.99325
lowerneck -26.3115 1.23581 -10.6071
upperneck 22.3821 5.07564 3.24806
head 11.276 1.79457 3.78809
rclavicle 5.70015e-014 -2.48481e-014
rhumerus 4.98686 11.8232 -59.0516
rradius 142.027
rwrist -0.459203
rhand 2.15042 11.7282
rfingers 7.12502
rthumb 27.6484 -16.26
lclavicle 5.70015e-014 -2.48481e-014
lhumerus 34.0911 -23.436 75.2
lradius 70.917
lwrist -12.8375
lhand -7.54988 7.23904
lfingers 7.12502
lthumb 18.3419 36.3943
rfemur -1.06485 -1.34176 2.28629
rtibia 22.603
rfoot -10.8006 -27.61
rtoes 4.38658
lfemur -25.2462 -1.59264 7.66847
ltibia 42.4557
lfoot 7.05812 -18.2983
ltoes -27.4015
2555
root -2.16319 17.6868 -1.73885 3.65506 17.1902 -4.21517
lowerback 11.1647 -2.28211 -3.24429
upperback -0.056641 -3.203 3.96768
thorax -5.91944 -1.42003 6.55159
lowerneck -26.8798 0.574723 -10.6328
upperneck 22.1786 4.14398 3.5526
head 11.3683 1.41984 3.76557
rclavicle -2.05742e-014 1.17283e-014
rhumerus 9.45827 9.15328 -56.6301
rradius 137.095
rwrist 3.26258
rhand 2.38265 11.1362
rfingers 7.12502
rthumb 27.8705 -16.8163
lclavicle -2.05742e-014 1.17283e-014
lhumerus 31.0063 -25.3726 77.3522
lradius 75.0895
lwrist -9.84846
lhand -7.62151 6.51392
lfingers 7.12502
lthumb 18.273 35.6756
rfemur -0.422941 -1.26578 2.03205
rtibia 21.6566
rfoot -11.0524 -27.9736
rtoes 5.75865
lfemur -26.3123 -2.56685 7.70547
ltibia 41.4019
lfoot 4.61286 -16.8295
ltoes -28.1858
